<?xml version="1.0" encoding="UTF-8"?>
<svg width="55px" height="52px" viewBox="0 0 55 52" version="1.1" xmlns="http://www.w3.org/2000/svg" xmlns:xlink="http://www.w3.org/1999/xlink">
    <!-- Generator: Sketch 45.1 (43504) - http://www.bohemiancoding.com/sketch -->
    <title>graph-regular</title>
    <desc>Created with Sketch.</desc>
    <defs></defs>
    <g id="Home" stroke="none" stroke-width="1" fill="none" fill-rule="evenodd">
        <g id="Desktop-HD" transform="translate(-245.000000, -1730.000000)" fill="#7b4a90">
            <g id="Main" transform="translate(0.000000, 976.000000)">
                <g id="What-we-do" transform="translate(245.000000, 549.000000)">
                    <g id="SEO" transform="translate(0.000000, 203.000000)">
                        <g id="graph-regular" transform="translate(0.000000, 2.000000)">
                            <g id="graph">
                                <polygon id="Shape" points="6.48654709 37.2310127 21.6300448 18.8335443 32.4409567 29.6531646 54.9424514 2.81392405 53.2077728 1.51392405 32.4409567 26.6253165 21.6300448 15.8056962 6.48654709 33.7670886 6.48654709 0 4.32436472 0 4.32436472 8.6556962 0 8.6556962 0 10.8196203 4.32436472 10.8196203 4.32436472 19.4835443 0 19.4835443 0 21.6474684 4.32436472 21.6474684 4.32436472 30.3031646 0 30.3031646 0 32.4670886 4.32436472 32.4670886 4.32436472 41.1310127 0 41.1310127 0 43.2949367 4.32436472 43.2949367 4.32436472 51.9506329 54.0710015 51.9506329 54.0710015 49.7867089 6.48654709 49.7867089"></polygon>
                            </g>
                        </g>
                    </g>
                </g>
            </g>
        </g>
    </g>
</svg>